<?xml version="1.0" encoding="iso-8859-1"?>
<!-- Generator: Adobe Illustrator 19.1.0, SVG Export Plug-In . SVG Version: 6.00 Build 0)  -->
<svg version="1.1" id="Capa_1" xmlns="http://www.w3.org/2000/svg" xmlns:xlink="http://www.w3.org/1999/xlink" x="0px" y="0px"
	 viewBox="0 0 512 512" style="enable-background:new 0 0 512 512;" xml:space="preserve">
<g>
	<g>
		<path style="fill:#5C546A;" d="M400,512H112c-13.255,0-24-10.745-24-24V24c0-13.255,10.745-24,24-24h288c13.255,0,24,10.745,24,24
			v464C424,501.255,413.255,512,400,512z"/>
	</g>
	<g>
		<path style="fill:#8B8996;" d="M112,512h288c13.255,0,24-10.745,24-24V192H88v296C88,501.255,98.745,512,112,512z"/>
	</g>
	<g>
		<path style="fill:#00E68C;" d="M376,48H136c-4.418,0-8,3.582-8,8v80c0,4.418,3.582,8,8,8h240c4.418,0,8-3.582,8-8V56
			C384,51.582,380.418,48,376,48z"/>
	</g>
	<g>
		<g>
			<path style="fill:#5C546A;" d="M280,120c-4.422,0-8-3.578-8-8V80c0-4.422,3.578-8,8-8c4.422,0,8,3.578,8,8v32
				C288,116.422,284.422,120,280,120z"/>
		</g>
	</g>
	<g>
		<g>
			<path style="fill:#5C546A;" d="M312,120c-4.422,0-8-3.578-8-8V80c0-4.422,3.578-8,8-8s8,3.578,8,8v32
				C320,116.422,316.422,120,312,120z"/>
		</g>
	</g>
	<g>
		<g>
			<path style="fill:#5C546A;" d="M344,120c-4.422,0-8-3.578-8-8V80c0-4.422,3.578-8,8-8c4.422,0,8,3.578,8,8v32
				C352,116.422,348.422,120,344,120z"/>
		</g>
	</g>
	<g>
		<path style="fill:#5C546A;" d="M280,304h-48c-4.418,0-8-3.582-8-8v-48c0-4.418,3.582-8,8-8h48c4.418,0,8,3.582,8,8v48
			C288,300.418,284.418,304,280,304z"/>
	</g>
	<g>
		<path style="fill:#5C546A;" d="M200,304h-48c-4.418,0-8-3.582-8-8v-48c0-4.418,3.582-8,8-8h48c4.418,0,8,3.582,8,8v48
			C208,300.418,204.418,304,200,304z"/>
	</g>
	<g>
		<path style="fill:#5C546A;" d="M360,304h-48c-4.418,0-8-3.582-8-8v-48c0-4.418,3.582-8,8-8h48c4.418,0,8,3.582,8,8v48
			C368,300.418,364.418,304,360,304z"/>
	</g>
	<g>
		<path style="fill:#5C546A;" d="M280,384h-48c-4.418,0-8-3.582-8-8v-48c0-4.418,3.582-8,8-8h48c4.418,0,8,3.582,8,8v48
			C288,380.418,284.418,384,280,384z"/>
	</g>
	<g>
		<path style="fill:#5C546A;" d="M200,384h-48c-4.418,0-8-3.582-8-8v-48c0-4.418,3.582-8,8-8h48c4.418,0,8,3.582,8,8v48
			C208,380.418,204.418,384,200,384z"/>
	</g>
	<g>
		<path style="fill:#5C546A;" d="M360,384h-48c-4.418,0-8-3.582-8-8v-48c0-4.418,3.582-8,8-8h48c4.418,0,8,3.582,8,8v48
			C368,380.418,364.418,384,360,384z"/>
	</g>
	<g>
		<path style="fill:#5C546A;" d="M280,464h-48c-4.418,0-8-3.582-8-8v-48c0-4.418,3.582-8,8-8h48c4.418,0,8,3.582,8,8v48
			C288,460.418,284.418,464,280,464z"/>
	</g>
	<g>
		<path style="fill:#5C546A;" d="M200,464h-48c-4.418,0-8-3.582-8-8v-48c0-4.418,3.582-8,8-8h48c4.418,0,8,3.582,8,8v48
			C208,460.418,204.418,464,200,464z"/>
	</g>
	<g>
		<path style="fill:#5C546A;" d="M360,464h-48c-4.418,0-8-3.582-8-8v-48c0-4.418,3.582-8,8-8h48c4.418,0,8,3.582,8,8v48
			C368,460.418,364.418,464,360,464z"/>
	</g>
</g>
<g>
</g>
<g>
</g>
<g>
</g>
<g>
</g>
<g>
</g>
<g>
</g>
<g>
</g>
<g>
</g>
<g>
</g>
<g>
</g>
<g>
</g>
<g>
</g>
<g>
</g>
<g>
</g>
<g>
</g>
</svg>
